<svg xmlns="http://www.w3.org/2000/svg" width="36.459" height="32.375" viewBox="0 0 36.459 32.375"><defs><style>.a{fill:#fff;}</style></defs><g transform="translate(0 -26.203)"><path class="a" d="M30.554,200.169a1.169,1.169,0,0,0-1.638.223q-.112.148-.23.292a12.536,12.536,0,0,1-4.7,3.466l-.029.013A13.751,13.751,0,0,1,4.384,192c0-.061,0-.122,0-.183H5.816a.605.605,0,0,0,.428-1.033l-2.6-2.6a.605.605,0,0,0-.856,0l-2.6,2.6a.605.605,0,0,0,.428,1.033H2.042A15.987,15.987,0,0,0,4.533,200.3l.015.023a16,16,0,0,0,8.569,6.627,16.944,16.944,0,0,0,5.151.814,15.509,15.509,0,0,0,6.681-1.489,14.673,14.673,0,0,0,5.828-4.473A1.169,1.169,0,0,0,30.554,200.169Z" transform="translate(0 -149.192)"/><path class="a" d="M99.482,42.385H98.046c0-.32-.01-.645-.028-.963a16.184,16.184,0,0,0-28.751-9.2,1.169,1.169,0,1,0,1.818,1.47q.131-.162.267-.319A13.847,13.847,0,0,1,95.684,41.56c.008.137.014.276.018.415s.006.274.006.411H94.273a.605.605,0,0,0-.428,1.033l2.6,2.6a.605.605,0,0,0,.856,0l2.6-2.6A.605.605,0,0,0,99.482,42.385Z" transform="translate(-63.63 0)"/></g></svg>