<svg xmlns="http://www.w3.org/2000/svg" width="16" height="16" viewBox="0 0 16 16"><defs><style>.a{fill:#afafaf;}</style></defs><path class="a" d="M8,1.5A7.807,7.807,0,0,0,0,9.079a7.257,7.257,0,0,0,1.271,4.1A6.768,6.768,0,0,1,.078,17.021a.292.292,0,0,0-.05.324.265.265,0,0,0,.239.156.238.238,0,0,0,.037,0A13.726,13.726,0,0,0,4.735,16,8.3,8.3,0,0,0,8,16.658a7.807,7.807,0,0,0,8-7.579A7.807,7.807,0,0,0,8,1.5ZM4.267,10.2a1.124,1.124,0,0,1,0-2.246,1.124,1.124,0,0,1,0,2.246ZM8,10.2A1.124,1.124,0,1,1,9.067,9.079,1.1,1.1,0,0,1,8,10.2Zm3.733,0A1.124,1.124,0,1,1,12.8,9.079,1.1,1.1,0,0,1,11.733,10.2Z" transform="translate(0 -1.5)"/></svg>