<svg xmlns="http://www.w3.org/2000/svg" width="35" height="35" viewBox="0 0 35 35"><defs><style>.a{fill:#fff;}.b,.d{fill:none;}.b{stroke:#fff;stroke-width:1.2px;}.c{stroke:none;}</style></defs><g transform="translate(-24 -60)"><g transform="translate(32 59.856)"><g transform="translate(0 9.144)"><path class="a" d="M4.124,45.683H.75a.721.721,0,0,0-.527.223A.72.72,0,0,0,0,46.433v7.5a.72.72,0,0,0,.223.527.721.721,0,0,0,.527.223H4.124a.76.76,0,0,0,.75-.75v-7.5a.76.76,0,0,0-.75-.75ZM2.777,48.46a.743.743,0,0,1-1.06,0,.747.747,0,0,1,.533-1.277.73.73,0,0,1,.527.217.743.743,0,0,1,0,1.06Z" transform="translate(0 -44.184)"/><path class="a" d="M149.506,17.145a2.8,2.8,0,0,0,.175-.89,2.43,2.43,0,0,0-.5-1.6,2.407,2.407,0,0,0,0-1.371,2.279,2.279,0,0,0-.632-1.1,2.815,2.815,0,0,0-.574-2.121,2.91,2.91,0,0,0-2.308-.914h-1.511a8.7,8.7,0,0,0-1.687.182q-.913.182-1.423.34t-1.412.463a8.577,8.577,0,0,1-1.851.515.775.775,0,0,0-.527.229.7.7,0,0,0-.223.521V18.9a.707.707,0,0,0,.211.509.768.768,0,0,0,.5.24q.281.024.89.691t1.183,1.418A17.368,17.368,0,0,0,141,23.167a1.8,1.8,0,0,1,.363.562,3.784,3.784,0,0,1,.205.568q.053.217.158.709.082.457.146.714a3.475,3.475,0,0,0,.228.609,2.033,2.033,0,0,0,.4.586.72.72,0,0,0,.527.223,3.5,3.5,0,0,0,.967-.123,2.569,2.569,0,0,0,.7-.3,1.646,1.646,0,0,0,.469-.475,2.71,2.71,0,0,0,.281-.527,2.915,2.915,0,0,0,.141-.586,5.046,5.046,0,0,0,.059-.527q.006-.176.006-.457a3.555,3.555,0,0,0-.117-.9,4.631,4.631,0,0,0-.223-.686q-.105-.234-.316-.668-.035-.07-.117-.211a1.993,1.993,0,0,1-.129-.258,2.872,2.872,0,0,1-.094-.281H147.9a2.142,2.142,0,0,0,1.576-.668,2.213,2.213,0,0,0,.674-1.581A2.516,2.516,0,0,0,149.506,17.145Z" transform="translate(-131.406 -9.144)"/></g></g><g class="b" transform="translate(24 60)"><circle class="c" cx="17.5" cy="17.5" r="17.5"/><circle class="d" cx="17.5" cy="17.5" r="16.9"/></g></g></svg>